<svg xmlns="http://www.w3.org/2000/svg" version="1.0" preserveAspectRatio="xMidYMid meet" viewBox="252 300 521.1 464.9">

<g transform="translate(0.000000,1024.000000) scale(0.100000,-0.100000)" fill="#000000" stroke="none">
<path fill="#6C63FF" d="M3051 7218 c-28 -14 -53 -37 -71 -64 -27 -43 -27 -45 -34 -280 -8 -269 3 -228 -127 -503 -33 -68 -59 -125 -59 -126 0 -2 -24 -54 -54 -117 -30 -62 -84 -175 -120 -252 l-66 -139 0 -262 c0 -230 2 -271 20 -341 45 -174 177 -319 348 -383 l60 -23 1 -731 2 -732 24 -41 c37 -62 89 -84 202 -84 l90 0 12 -54 c6 -29 27 -84 45 -122 135 -279 413 -420 708 -359 191 40 365 175 445 345 22 47 46 106 53 133 l13 47 576 0 577 0 13 -49 c29 -112 113 -250 204 -331 152 -137 359 -189 559 -141 201 48 352 166 443 347 17 34 37 87 44 117 l14 55 91 4 c137 6 198 45 226 147 6 22 10 300 10 741 l0 705 87 40 c149 68 262 196 315 355 19 58 22 93 25 330 l4 265 -41 90 c-23 50 -86 182 -140 295 -54 113 -131 275 -171 360 l-73 155 -6 240 c-5 220 -7 243 -27 280 -25 48 -58 80 -96 94 -20 8 -643 11 -2055 11 l-2027 -1 -44 -21z m643 -435 c-14 -38 -41 -111 -60 -163 -82 -220 -192 -509 -270 -706 l-84 -210 0 -231 c0 -220 -1 -232 -23 -274 -33 -63 -91 -92 -174 -87 -71 4 -106 24 -138 79 -19 32 -20 49 -17 278 l3 244 76 161 c167 357 288 617 338 726 29 63 67 145 84 183 l32 67 130 0 129 0 -26 -67z m806 40 c0 -33 -45 -462 -61 -576 -5 -43 -20 -181 -33 -308 l-23 -230 -36 -37 -37 -38 0 -161 c0 -89 -5 -185 -11 -212 -39 -181 -323 -207 -400 -36 -15 31 -19 65 -19 157 l0 118 -89 97 -89 97 80 230 c44 127 129 373 188 546 59 173 113 330 120 348 l12 32 199 0 199 0 0 -27z m854 0 c3 -16 19 -167 36 -338 17 -170 42 -422 56 -558 l25 -248 -39 -47 c-22 -26 -49 -56 -61 -66 -19 -18 -21 -29 -21 -151 0 -165 -4 -184 -47 -235 -50 -58 -104 -83 -178 -83 -110 1 -193 57 -220 147 -10 32 -15 93 -15 171 l0 121 -60 71 -60 71 20 193 c11 107 38 370 60 584 22 215 40 391 40 393 0 1 103 2 229 2 l229 0 6 -27z m802 -9 c8 -20 38 -106 66 -192 27 -87 111 -332 185 -546 l135 -389 -93 -93 -93 -94 3 -119 c2 -102 0 -124 -17 -157 -33 -65 -83 -97 -168 -109 -63 -8 -123 7 -164 41 -59 51 -64 71 -70 281 l-5 192 -38 37 c-43 42 -42 40 -57 199 -13 141 -87 880 -95 943 l-5 42 201 0 200 0 15 -36z m795 -329 c93 -198 214 -454 269 -570 l100 -210 0 -239 c0 -226 -1 -240 -22 -277 -23 -41 -61 -65 -124 -75 -50 -7 -122 11 -152 39 -50 46 -54 65 -62 331 -7 247 -7 252 -37 326 -162 406 -383 997 -383 1025 0 13 17 15 121 13 l122 -3 168 -360z m-2326 -1520 c201 -302 629 -351 900 -103 30 27 69 72 87 100 l33 50 24 -33 c53 -72 177 -185 233 -212 252 -121 552 -38 705 195 l31 48 51 -70 c56 -75 144 -158 177 -166 20 -5 21 -14 27 -141 8 -161 7 -616 -2 -866 l-6 -178 -40 52 c-116 153 -282 237 -485 246 -98 5 -127 2 -195 -16 -161 -44 -296 -144 -380 -279 l-38 -62 -631 0 -631 1 -24 51 c-14 29 -54 81 -97 124 -59 59 -92 82 -166 118 -111 53 -168 66 -291 66 -113 0 -186 -18 -295 -71 -82 -40 -187 -130 -240 -204 l-21 -30 0 590 0 590 49 34 c56 37 166 150 182 187 6 13 14 24 17 24 3 -1 22 -26 41 -57 99 -157 284 -253 465 -240 181 13 338 103 441 253 21 30 39 54 40 54 2 0 19 -25 39 -55z m-615 -1476 c139 -63 200 -219 140 -357 -40 -93 -145 -162 -245 -162 -97 0 -200 66 -241 154 -27 57 -32 143 -12 208 21 70 100 145 178 169 49 15 134 9 180 -12z m2441 -3 c47 -22 105 -80 132 -131 30 -57 29 -162 -2 -228 -42 -87 -150 -157 -241 -157 -45 0 -125 28 -167 59 -96 69 -128 230 -68 340 54 97 136 143 250 138 33 -2 76 -11 96 -21z"/>
</g>
</svg>